<?xml version="1.0" encoding="UTF-8"?>
<svg viewBox="0 0 120 120" xmlns="http://www.w3.org/2000/svg">
<path d="m14 14h92v92h-92v-92z" fill="#D1D2D6"/>
<path d="m38.191 90.882 7.0404-4.2608c1.3583 2.4083 2.5939 4.4458 5.5576 4.4458 2.8409 0 4.632-1.1113 4.632-5.4338v-29.396h8.6456v29.518c0 8.9547-5.2489 13.031-12.907 13.031-6.9162 0-10.931-3.582-12.969-7.9047" fill="#F5F6F7"/>
<path d="m68.76 89.955 7.0396-4.0759c1.8531 3.0264 4.2616 5.2494 8.5225 5.2494 3.5823 0 5.8667-1.7911 5.8667-4.2613 0-2.9643-2.3466-4.0143-6.2991-5.7429l-2.1608-0.927c-6.2378-2.655-10.376-5.9898-10.376-13.03 0-6.4844 4.9404-11.425 12.66-11.425 5.4963 0 9.4486 1.9146 12.289 6.9169l-6.7315 4.3227c-1.4822-2.6553-3.0874-3.7049-5.5575-3.7049-2.532 0-4.1378 1.6056-4.1378 3.7049 0 2.5938 1.6058 3.644 5.3107 5.2497l2.1613 0.9263c7.349 3.1498 11.487 6.3607 11.487 13.586 0 7.7818-6.1138 12.042-14.327 12.042-8.0283 0-13.216-3.8286-15.748-8.8311" fill="#F5F6F7"/>
</svg>
