<svg viewBox="0 0 102 116" xmlns="http://www.w3.org/2000/svg"><path d="M92.83 84.802l-40.145 22.711V89.828l25.013-13.763 15.132 8.737zm2.75-2.487V34.828l-14.684 8.487V73.84l14.684 8.474zM9.014 84.802l40.145 22.711V89.828L24.133 76.065 9.015 84.802zm-2.75-2.487V34.828l14.684 8.487V73.84L6.264 82.315zM7.988 31.75l41.17-23.29v17.092l-26.38 14.513-.21.118-14.58-8.434zm85.868 0L52.685 8.46v17.092l26.382 14.5.21.118 14.58-8.42zM49.157 85.802L24.473 72.223V45.341l24.684 14.25v26.21zm3.526 0l24.684-13.566V45.341l-24.684 14.25v26.21zm-26.54-43.566L50.92 28.618l24.776 13.618L50.92 56.539 26.143 42.236z" fill="#D1D2D6"/></svg>