<?xml version="1.0" encoding="UTF-8"?>
<svg viewBox="0 0 102 116" xmlns="http://www.w3.org/2000/svg">
<path d="m92.83 84.802-40.145 22.711v-17.685l25.013-13.763 15.132 8.7369zm2.75-2.4869v-47.487l-14.684 8.4868v30.526l14.684 8.4737zm-86.566 2.4869 40.145 22.711v-17.685l-25.026-13.763-15.118 8.7369zm-2.75-2.4869v-47.487l14.684 8.4868v30.526l-14.684 8.4737zm1.7237-50.566 41.171-23.289v17.092l-26.382 14.513-0.2105 0.1184-14.579-8.4342zm85.868 0-41.171-23.289v17.092l26.382 14.5 0.2105 0.1184 14.579-8.4211z" fill="#D1D2D6"/>
<path d="m49.157 85.802-24.684-13.579v-26.882l24.684 14.25v26.21zm3.5263 0 24.684-13.566v-26.895l-24.684 14.25v26.21zm-26.54-43.566 24.776-13.618 24.776 13.618-24.776 14.303-24.776-14.303z" fill="#D1D2D6"/>
</svg>
